<svg width="110" height="36" viewBox="0 0 110 36" fill="none" xmlns="http://www.w3.org/2000/svg">
<g clip-path="url(#clip0_582_37598)">
<path d="M8.39261 10.1029C8.66142 10.0116 8.96009 10.1942 8.96009 10.4985V13.0852C8.96009 13.2373 8.96009 13.7851 8.96009 13.7851C8.96009 13.7851 9.34836 13.2678 9.40809 13.1461C10.8118 11.168 12.6636 10.1638 14.9036 10.1638C17.1436 10.1638 19.1149 11.1376 20.6679 13.0852C22.221 15.0328 22.9976 17.4673 22.9976 20.3887C22.9976 23.31 22.2509 25.6228 20.7575 27.4182C19.2642 29.2441 17.3527 30.1266 14.9932 30.1266C12.7831 30.1266 11.0209 29.2745 9.70676 27.5704L9.40809 27.2052C9.40809 27.2052 9.25876 27.0226 9.19902 26.9922C9.13929 26.9618 9.10942 26.9313 9.07955 26.9009C8.98995 27.1139 8.96009 27.2661 8.96009 27.3878V31.3743C8.96009 31.9525 8.96009 32.3785 8.98995 32.5915C8.98995 32.8046 9.07955 33.048 9.13929 33.261C9.31849 33.6262 9.8561 33.9305 10.782 34.1739C11.439 34.3261 11.7676 34.6608 11.7676 35.1782C11.7676 35.7259 11.4092 36.0302 10.7222 36.0302H1.04534C0.328537 36.0302 0 35.7259 0 35.1173C0 34.6608 0.328537 34.3565 0.98561 34.2044C1.82188 33.9609 2.32962 33.6871 2.50882 33.3523C2.68803 33.0176 2.77763 32.3785 2.77763 31.4047V15.1849C2.77763 15.1849 2.71789 14.9415 2.62829 14.8502L1.16481 13.6025C0.925876 13.3895 0.98561 12.9939 1.28428 12.9026L8.39261 10.0725V10.1029ZM13.5297 13.0243C12.3948 13.0243 11.4092 13.5417 10.5729 14.6067C9.73663 15.6718 9.22889 16.9804 9.10942 18.5932L8.84062 21.0581V21.9102C8.84062 23.2492 9.19902 24.3447 9.91583 25.1968C10.6326 26.0488 11.5585 26.5053 12.7233 26.5053C14.1271 26.5053 15.2919 25.7445 16.2178 24.2534C17.1436 22.7623 17.5916 20.8756 17.5916 18.5628C17.5916 16.8891 17.2332 15.5501 16.4866 14.5155C15.7698 13.5112 14.7841 12.9939 13.5596 12.9939L13.5297 13.0243Z" fill="#009764"/>
<path d="M32.4952 10.0422C32.764 9.92043 33.0627 10.1334 33.0627 10.4378V24.9534C33.0627 25.9272 33.1523 26.5967 33.3614 26.9618C33.5704 27.2966 34.0184 27.5705 34.7353 27.7226C35.4521 27.8748 35.7806 28.2095 35.7806 28.7269C35.7806 29.305 35.4222 29.6094 34.7353 29.6094H25.357C24.6402 29.6094 24.252 29.305 24.252 28.6964C24.252 28.2704 24.5208 27.9965 25.0285 27.8443C25.5362 27.6922 25.9245 27.54 26.1336 27.4183C26.3426 27.2662 26.5218 27.0836 26.6712 26.8401C26.7608 26.5358 26.8205 26.2315 26.8504 25.8968C26.8504 25.562 26.8504 25.2577 26.8504 25.0143V15.1546C26.8504 15.1546 26.7906 14.9111 26.701 14.8503L25.5064 13.7547C25.2674 13.5417 25.357 13.1766 25.6258 13.0548L32.4654 10.1334L32.4952 10.0422Z" fill="#009764"/>
<path d="M91.7513 28.666C91.7513 28.1486 91.3929 27.8139 90.7059 27.6617C89.9891 27.5096 89.5411 27.2357 89.332 26.901C89.123 26.5662 89.0334 25.9576 89.0334 25.0751V10.4377C89.0334 10.1334 88.7347 9.95084 88.4659 10.0421L81.6264 12.9635C81.3576 13.0852 81.2978 13.4504 81.5069 13.6634L82.7016 14.759C82.7016 14.759 82.8509 14.9415 82.8509 15.0633V24.9229C82.8509 25.1968 82.8509 25.5011 82.8509 25.8054C82.8509 26.1098 82.7912 26.4141 82.7016 26.7184C82.7016 26.7184 82.7016 26.7792 82.6717 26.7792C82.5224 27.0531 82.0744 27.8139 80.8797 27.8139C79.8941 27.8139 79.5058 27.2661 79.237 26.9314C78.9682 26.5967 78.7591 25.8967 78.5799 24.9229L76.7581 15.7328C76.0413 12.0202 74.1596 10.1639 71.1431 10.1639C69.1719 10.1639 67.5292 10.9246 66.215 12.4158L65.4982 13.2374C65.2593 13.5113 64.7814 13.3287 64.7814 12.9635V10.4682C64.7814 10.1639 64.4827 9.98127 64.2139 10.0726L57.016 12.8722C56.7173 12.994 56.6576 13.3896 56.8965 13.6026L58.4197 14.8198C58.4197 14.8198 58.5691 15.0328 58.5691 15.1546V24.8925C58.5691 25.8663 58.5094 26.4749 58.36 26.7792C58.2405 27.1749 57.8224 27.4792 57.1355 27.6617C56.4485 27.8443 56.12 28.1791 56.12 28.6355C56.12 29.2442 56.4784 29.5485 57.1653 29.5485H66.1254C66.8721 29.5485 67.2305 29.2442 67.2305 28.666C67.2305 28.2095 66.8721 27.8748 66.1852 27.6922C65.4982 27.4792 65.0801 27.2357 64.9606 26.901C64.8411 26.5662 64.7515 26.2619 64.7515 25.988C64.7515 25.6837 64.7515 25.349 64.7515 24.9229V18.7759C64.7515 17.5282 65.0502 16.524 65.6774 15.7328C66.3046 14.972 67.111 14.5764 68.1265 14.5764C69.7095 14.5764 70.6652 15.6719 70.9639 17.8629L72.1585 24.9534L72.3676 26.2011V26.4749C72.3975 27.1444 72.0689 27.5705 71.4119 27.753L71.0535 27.8748C70.6353 27.9965 70.4263 28.2704 70.4263 28.666C70.4263 29.2746 70.7847 29.5789 71.5313 29.5789H90.6462H90.915C91.4526 29.518 91.7513 29.2442 91.7513 28.7268V28.666Z" fill="#009764"/>
<path d="M47.6677 12.5071C46.8612 11.6855 42.3812 15.8241 44.6511 22.0929C45.4276 24.2231 47.0106 25.8968 49.3402 25.8968C50.953 25.8968 52.536 24.9534 53.3722 24.3448C53.7307 24.0709 54.2384 24.1318 54.5371 24.4666C54.8357 24.8013 54.8656 25.3186 54.5371 25.6534C53.4618 26.9619 50.6842 29.8224 47.0106 29.8224C45.6367 29.8224 44.0239 29.8833 42.8889 29.3964C41.754 28.9095 40.7684 28.3922 39.9022 27.5401C39.066 26.688 38.379 25.6838 37.8713 24.5274C37.3636 23.371 37.274 21.9408 37.1545 20.5714C37.0649 19.3237 37.3636 18.1064 37.7518 16.9196C38.1401 15.7024 38.8868 14.7286 39.6932 13.7852C40.4996 12.8419 43.1876 10.2552 46.7418 10.2552C48.0559 10.1335 51.6997 10.5291 53.3125 11.3812C53.5216 11.5029 53.6709 11.7463 53.6112 11.9898L52.8645 16.7675C52.7749 17.3761 51.849 17.1935 51.849 17.1935C51.849 17.1935 48.2351 13.1157 47.5781 12.4767L47.6677 12.5071Z" fill="#009764"/>
<path d="M102.862 12.5071C102.055 11.6855 97.5754 15.8241 99.8452 22.0929C100.622 24.2231 102.205 25.8968 104.534 25.8968C106.147 25.8968 107.73 24.9534 108.566 24.3448C108.925 24.0709 109.433 24.1318 109.731 24.4666C110.03 24.8013 110.06 25.3186 109.731 25.6534C108.656 26.9619 105.878 29.8224 102.205 29.8224C100.831 29.8224 99.218 29.8833 98.0831 29.3964C96.9482 28.9095 95.9625 28.3922 95.0964 27.5401C94.2601 26.688 93.5732 25.6838 93.0654 24.5274C92.5577 23.371 92.4681 21.9408 92.3486 20.5714C92.259 19.3237 92.5577 18.1064 92.946 16.9196C93.3343 15.7024 94.0809 14.7286 94.8873 13.7852C95.6937 12.8419 98.3818 10.2552 101.936 10.2552C103.25 10.1335 106.894 10.5291 108.507 11.3812C108.716 11.5029 108.865 11.7463 108.805 11.9898L108.059 16.7675C107.969 17.3761 107.043 17.1935 107.043 17.1935C107.043 17.1935 103.429 13.1157 102.772 12.4767L102.862 12.5071Z" fill="#009764"/>
<path d="M29.0307 0C29.3592 0 29.628 0.243449 29.6878 0.54776C29.8968 1.58242 30.5539 3.77346 32.8537 4.07777C33.1822 4.1082 33.4211 4.41251 33.4211 4.74725C33.4211 5.05156 33.2121 5.32544 32.9134 5.41674C31.9577 5.66019 29.9267 6.4514 29.6579 8.82502C29.628 9.15976 29.3294 9.40321 29.0008 9.40321C28.7022 9.40321 28.4334 9.1902 28.3736 8.88588C28.1347 7.88166 27.388 5.66019 25.0285 5.35588C24.7 5.32544 24.4611 5.02113 24.4611 4.68639C24.4611 4.35165 24.7 4.07777 24.9987 4.01691C26.0141 3.83432 28.1048 3.1344 28.4035 0.608622C28.4334 0.27388 28.7022 0 29.0606 0L29.0307 0Z" fill="#009764"/>
<path d="M85.1208 0C85.4494 0 85.5987 0.243449 85.6584 0.54776C85.8675 1.58242 86.644 3.92561 88.9438 4.22992C89.2723 4.26035 89.5113 4.41251 89.5113 4.74725C89.5113 5.05156 89.3022 5.17329 89.0035 5.23415C88.0478 5.4776 85.8974 6.4514 85.5987 8.79459C85.5688 9.12933 85.3896 9.37278 85.0611 9.37278C84.7624 9.37278 84.6429 9.15976 84.5832 8.85545C84.3443 7.85123 83.4483 5.4776 81.0888 5.17329C80.7602 5.14286 80.5213 5.02113 80.5213 4.68639C80.5213 4.35165 80.7602 4.19949 81.0589 4.16906C82.0744 3.98647 84.3144 3.1344 84.6131 0.608622C84.6429 0.27388 84.7624 0 85.1208 0Z" fill="#009764"/>
</g>
<defs>
<clipPath id="clip0_582_37598">
<rect width="110" height="36" fill="white"/>
</clipPath>
</defs>
</svg>
